<svg width="134" height="187" viewBox="0 0 134 187" fill="none" xmlns="http://www.w3.org/2000/svg">
<path d="M52.0448 5L51.0448 7C49.8781 7.5 47.4448 8.6 47.0448 9C46.6448 9.4 45.5448 9.16667 45.0448 9L43.5448 7V3C43.5448 2.6 44.2115 2.16667 44.5448 2C44.5448 1.66667 44.6448 0.9 45.0448 0.5C45.5448 0 47.5448 0 48.5448 0C49.3448 0 49.5448 0.666667 49.5448 1V5C49.5448 5.4 49.8781 5.5 50.0448 5.5C50.5448 4.83333 51.6448 3.5 52.0448 3.5C52.4448 3.5 52.2115 4.5 52.0448 5Z" fill="#FE9693"/>
<path d="M116.545 36C116.545 35.2 115.878 35.6667 115.545 36V40L117.045 42.5L119.545 43C120.211 42.1667 121.745 40.3 122.545 39.5C123.545 38.5 123.045 37 123.045 36.5C123.045 36 121.045 33.5 119.545 33.5C118.345 33.5 118.045 34.8333 118.045 35.5V37.5C118.045 38.3 117.045 38.1667 116.545 38V36Z" fill="#FD9594"/>
<path d="M51.0448 186C49.8781 185.667 48.1448 184.7 50.5448 183.5C52.9448 182.3 55.2115 177 56.0448 174.5L57.0448 171.5C57.7115 171.833 59.4448 172.6 61.0448 173C62.6448 173.4 62.0448 175.167 61.5448 176L51.0448 186Z" fill="#FD9795"/>
<path d="M72.5448 166.5C72.7115 163 73.5448 155.566 73.5448 155C73.5448 154.5 73.7115 154.167 73.5448 154" stroke="white" stroke-linecap="round"/>
<path d="M63.0447 172.5L52.5447 176C52.2114 175.5 50.2447 171.4 45.0447 159C39.8447 146.6 39.2114 139.167 39.5447 137L61.0447 111C65.0447 113.5 72.9448 118.7 72.5448 119.5C72.0448 120.5 69.0447 126 66.0447 130.5C63.6447 134.1 60.3781 147 59.0447 153L63.0447 172.5Z" fill="#FA8C01"/>
<path d="M68.0448 158C67.6448 157.2 67.2115 157 67.0448 157C67.3781 155.667 68.5448 153 70.5448 153C73.0448 153 73.0448 153.5 73.5448 154C74.0448 154.5 72.5448 162.5 72.5448 163.5C72.5448 164.5 72.0448 167.5 71.5448 167.5C71.0448 167.5 70.0448 165.5 69.0448 164.5C68.0448 163.5 68.5448 159 68.0448 158Z" fill="#FF9597"/>
<path d="M68.0448 162.5C69.3781 161.833 72.2448 160.5 73.0448 160.5M68.5448 164.5C69.8781 163.833 72.6448 162.5 73.0448 162.5" stroke="white" stroke-linecap="round"/>
<path d="M55.5448 99C55.1448 95.8 56.7114 90 57.5448 87.5L69.0448 82.5L83.5448 85.5C83.8781 85.8333 84.9448 87.2 86.5448 90C88.5448 93.5 87.5448 103 86.5448 105C85.5448 107 82.0448 111.5 79.0448 115C76.6448 117.8 63.7114 126.833 57.5448 131L71.5448 151.5L65.5448 158.5L62.5448 156C55.8781 150.5 41.1448 138.2 35.5448 133C29.9448 127.8 32.2114 123.167 34.0448 121.5L55.5448 99Z" fill="#FBA802"/>
<path d="M77.5448 90C79.5448 95.8333 79.7448 109.8 64.5448 119C59.0448 123 52.0448 128 50.5448 128C49.3448 128 62.7115 145 69.5448 153.5" stroke="#EC9D00" stroke-width="0.8"/>
<path d="M78.5448 37.5C82.5448 36.3333 92.0448 36.4 98.0448 46C103.339 54.4711 104.092 55.2596 103.737 54.4118C103.644 54.2934 103.581 54.1451 103.545 54C103.623 54.1568 103.69 54.2988 103.737 54.4118C104.072 54.8374 104.793 54.8776 106.045 53L115.045 39.5L120.545 43.5C117.211 51.6667 109.945 68.5 107.545 70.5C104.545 73 102.045 72.5 96.5448 68C91.0448 63.5 90.0448 61.5 88.5448 61.5C87.0448 61.5 86.5448 61.5 86.5448 65.5V80C86.7115 81.6667 85.8448 85.6 81.0448 88C75.0448 91 74.5448 91 71.5448 91C68.5448 91 63.5448 91 61.0448 89.5C58.5448 88 56.5448 86.5 55.0448 85C53.5448 83.5 51.0448 80.5 51.0448 79C51.0448 77.5 50.5448 74.5 51.5448 73C52.5448 71.5 54.5448 69.5 54.5448 68.5V62.5C54.5448 60.5 54.5448 54.5 50.0448 51C46.4448 48.2 39.5448 41.1667 36.5448 38C35.3781 37.6667 33.7448 35 36.5448 27C39.3448 19 42.0448 12 43.0448 9.5L43.5448 7H51.0448L47.0448 29.5L62.5448 37.5H78.5448Z" fill="#E72F2D"/>
<path d="M81.5788 25.0736C81.5788 23.0736 79.2454 23.2403 78.0788 23.5736L77.0787 19.0736L72.5787 20.0736C71.0787 18.7403 67.9788 17.5736 67.5788 23.5736C67.1788 29.5736 70.4121 31.0736 72.0788 31.0736V35.0736C71.5788 35.0736 69.5788 37.0736 69.5788 38.0736C69.5788 39.0736 71.5788 43.0736 74.5788 43.0736C77.5788 43.0736 79.0788 38.0736 79.0788 37.5736C79.0788 37.1736 77.0788 34.7403 76.0788 33.5736V30.5736C76.8788 30.1736 77.4121 29.0736 77.5788 28.5736C77.5788 28.4069 77.6788 28.1736 78.0788 28.5736C80.5788 29.0736 81.5788 27.5736 81.5788 25.0736Z" fill="#FE9695"/>
<path d="M66.5448 23C68.9448 25.8 74.2115 23.5 76.0448 22C76.0448 23.2 74.5448 25 77.5448 26L78.0448 25.5C78.0448 25 78.5448 23.8 78.5448 23C78.5448 22 83.0448 19.5 83.5448 19C84.0448 18.5 84.5448 14 81.5448 11.5C78.5448 9.00002 75.0448 11.5 74.5448 12.5C74.0448 13.5 73.5448 16.5 73.0448 16C72.5448 15.5 70 15.1362 68.5448 15.5C66.5448 16 63.5448 19.5 66.5448 23Z" fill="black"/>
<path d="M52.5448 181L54.5448 182.5H54.7948H55.0448" stroke="white" stroke-linecap="round"/>
<path d="M51.0448 186L62.0448 176" stroke="white" stroke-linecap="round"/>
<path d="M88.5304 170C85.7304 164 94.697 159.5 99.5304 158C102.03 158 103.53 156.5 105.53 155.5C107.53 154.5 109.03 147 112.03 141C115.03 135 124.03 137 126.03 137.5C128.03 138 131.53 141.5 132.53 147C133.33 151.4 127.864 156.167 125.03 158C121.03 158.667 112.23 161 109.03 165C105.83 169 101.364 172.667 99.5304 174C97.0304 175.167 91.3304 176 88.5304 170Z" stroke="white" stroke-width="0.8"/>
<path d="M17.711 53.4539C14.5864 54.6241 13.0631 50.5727 12.5 48.0854C12.1989 46.7552 12 45 11 44C10.2032 43.2032 6.96425 42.2486 4.0682 40.5049C1.17215 38.7613 1.36167 35.4052 1.99996 33.5C2.63825 31.5947 5.11466 29.0382 7.99998 30C9.5 30.5 12.9438 32.6082 13.1211 34.644C13.2983 36.6798 14.1237 41.1928 16.0071 42.958C17.8905 44.7233 19.5565 47.1118 20.1541 48.0854C20.6417 49.3873 20.8357 52.2837 17.711 53.4539Z" stroke="white" stroke-width="0.5"/>
<circle cx="114" cy="94" r="5" fill="#FD8344"/>
<circle cx="25" cy="168" r="4" fill="#E7E3E3"/>
<path d="M73.5 28H70.5C70.6667 28.5 71.2 29.5 72 29.5C72.8 29.5 73.3333 28.5 73.5 28Z" fill="#EFEFEF"/>
</svg>
